<mxfile host="app.diagrams.net" modified="2022-04-21T12:29:29.960Z" agent="5.0 (Windows NT 10.0; Win64; x64) AppleWebKit/537.36 (KHTML, like Gecko) Chrome/100.0.4896.127 Safari/537.36" etag="hBi3w55IxdxNSygkS7Ly" version="17.4.0" type="github">
  <diagram name="Page-1" id="90a13364-a465-7bf4-72fc-28e22215d7a0">
    <mxGraphModel dx="1038" dy="521" grid="1" gridSize="10" guides="1" tooltips="1" connect="1" arrows="1" fold="1" page="1" pageScale="1.5" pageWidth="1169" pageHeight="826" background="none" math="0" shadow="0">
      <root>
        <mxCell id="0" style=";html=1;" />
        <mxCell id="1" style=";html=1;" parent="0" />
        <mxCell id="3a17f1ce550125da-16" style="edgeStyle=elbowEdgeStyle;rounded=0;html=1;startArrow=none;startFill=0;jettySize=auto;orthogonalLoop=1;fontSize=18;elbow=vertical;" parent="1" source="3a17f1ce550125da-2" edge="1">
          <mxGeometry relative="1" as="geometry">
            <mxPoint x="1220" y="730" as="targetPoint" />
            <Array as="points">
              <mxPoint x="1200" y="610" />
            </Array>
          </mxGeometry>
        </mxCell>
        <mxCell id="3a17f1ce550125da-2" value="ATmega328" style="whiteSpace=wrap;html=1;shadow=1;fontSize=18;fillColor=#f5f5f5;strokeColor=#666666;" parent="1" vertex="1">
          <mxGeometry x="787" y="454" width="170" height="280" as="geometry" />
        </mxCell>
        <mxCell id="3a17f1ce550125da-21" style="edgeStyle=elbowEdgeStyle;rounded=0;html=1;startArrow=none;startFill=0;jettySize=auto;orthogonalLoop=1;fontSize=18;elbow=vertical;" parent="1" edge="1">
          <mxGeometry relative="1" as="geometry">
            <mxPoint x="787" y="610" as="sourcePoint" />
            <mxPoint x="617" y="730" as="targetPoint" />
            <Array as="points">
              <mxPoint x="557" y="610" />
            </Array>
          </mxGeometry>
        </mxCell>
        <mxCell id="xWLGnvbqJ5rBGMrY2cbc-1" value="" style="rounded=0;whiteSpace=wrap;html=1;direction=south;" vertex="1" parent="1">
          <mxGeometry x="1200" y="740" width="60" height="130" as="geometry" />
        </mxCell>
        <mxCell id="xWLGnvbqJ5rBGMrY2cbc-2" value="" style="endArrow=classic;html=1;rounded=0;" edge="1" parent="1">
          <mxGeometry width="50" height="50" relative="1" as="geometry">
            <mxPoint x="877" y="734" as="sourcePoint" />
            <mxPoint x="877" y="794" as="targetPoint" />
            <Array as="points">
              <mxPoint x="877" y="754" />
            </Array>
          </mxGeometry>
        </mxCell>
        <mxCell id="xWLGnvbqJ5rBGMrY2cbc-4" value="Resistor 100 ohms" style="rounded=0;whiteSpace=wrap;html=1;" vertex="1" parent="1">
          <mxGeometry x="817" y="800" width="120" height="60" as="geometry" />
        </mxCell>
        <mxCell id="xWLGnvbqJ5rBGMrY2cbc-5" value="" style="ellipse;whiteSpace=wrap;html=1;aspect=fixed;fillColor=#FF3333;" vertex="1" parent="1">
          <mxGeometry x="1205" y="750" width="50" height="50" as="geometry" />
        </mxCell>
        <mxCell id="xWLGnvbqJ5rBGMrY2cbc-6" value="" style="ellipse;whiteSpace=wrap;html=1;aspect=fixed;fillColor=#80FF00;" vertex="1" parent="1">
          <mxGeometry x="1205" y="810" width="50" height="50" as="geometry" />
        </mxCell>
        <mxCell id="xWLGnvbqJ5rBGMrY2cbc-7" style="edgeStyle=orthogonalEdgeStyle;rounded=0;orthogonalLoop=1;jettySize=auto;html=1;exitX=1;exitY=0.5;exitDx=0;exitDy=0;" edge="1" parent="1" source="xWLGnvbqJ5rBGMrY2cbc-1" target="xWLGnvbqJ5rBGMrY2cbc-1">
          <mxGeometry relative="1" as="geometry" />
        </mxCell>
        <mxCell id="xWLGnvbqJ5rBGMrY2cbc-9" value="Pedestrian Crosswalking" style="text;html=1;strokeColor=none;fillColor=none;align=center;verticalAlign=middle;whiteSpace=wrap;rounded=0;" vertex="1" parent="1">
          <mxGeometry x="1200" y="880" width="70" height="40" as="geometry" />
        </mxCell>
        <mxCell id="xWLGnvbqJ5rBGMrY2cbc-11" value="" style="rounded=0;whiteSpace=wrap;html=1;fillColor=#FFFCFA;direction=south;" vertex="1" parent="1">
          <mxGeometry x="590" y="745" width="60" height="165" as="geometry" />
        </mxCell>
        <mxCell id="xWLGnvbqJ5rBGMrY2cbc-12" value="" style="ellipse;whiteSpace=wrap;html=1;aspect=fixed;fillColor=#FF5208;" vertex="1" parent="1">
          <mxGeometry x="600" y="755" width="40" height="40" as="geometry" />
        </mxCell>
        <mxCell id="xWLGnvbqJ5rBGMrY2cbc-13" value="" style="ellipse;whiteSpace=wrap;html=1;aspect=fixed;fillColor=#E5FF3D;" vertex="1" parent="1">
          <mxGeometry x="600" y="806" width="40" height="40" as="geometry" />
        </mxCell>
        <mxCell id="xWLGnvbqJ5rBGMrY2cbc-14" value="" style="ellipse;whiteSpace=wrap;html=1;aspect=fixed;fillColor=#8BFF17;" vertex="1" parent="1">
          <mxGeometry x="601" y="860" width="37" height="37" as="geometry" />
        </mxCell>
        <mxCell id="xWLGnvbqJ5rBGMrY2cbc-17" value="Sensor" style="rounded=0;whiteSpace=wrap;html=1;fillColor=#FFFFFF;" vertex="1" parent="1">
          <mxGeometry x="817" y="320" width="120" height="60" as="geometry" />
        </mxCell>
        <mxCell id="xWLGnvbqJ5rBGMrY2cbc-18" value="" style="endArrow=classic;html=1;rounded=0;" edge="1" parent="1">
          <mxGeometry width="50" height="50" relative="1" as="geometry">
            <mxPoint x="880" y="380" as="sourcePoint" />
            <mxPoint x="880" y="440" as="targetPoint" />
          </mxGeometry>
        </mxCell>
      </root>
    </mxGraphModel>
  </diagram>
</mxfile>
